#!OML:ASF F:\VICON\USERDATA\INSTALL\rory3\rory3.ASF
:FULLY-SPECIFIED
:DEGREES
1173
root -0.729292 18.539 2.36304 -174.558 73.7499 -173.073
lowerback 4.42779 5.61107 3.65467
upperback 2.58687 7.67312 0.870147
thorax 0.555327 3.90143 -1.40173
lowerneck -9.21594 -3.99205 -1.90889
upperneck 24.0776 -6.57585 9.35684
head 9.48407 -1.88381 2.9022
rclavicle 6.05796e-014 -7.55382e-015
rhumerus 60.3417 11.9558 -65.7889
rradius 37.9316
rwrist 33.7364
rhand -36.6126 -13.9378
rfingers 7.12502
rthumb -9.70087 -43.6944
lclavicle 6.05796e-014 -7.55382e-015
lhumerus 33.8184 -10.4699 73.901
lradius 82.5211
lwrist -24.5946
lhand -34.744 44.8482
lfingers 7.12502
lthumb -7.89766 74.6806
rfemur 0.947321 10.2099 13.0012
rtibia 39.4315
rfoot -7.3204 -24.4071
rtoes -13.9753
lfemur -17.7888 -12.0158 -17.0287
ltibia 33.9818
lfoot -11.5443 -2.12126
ltoes -8.43063
1174
root -0.735901 18.5377 2.3475 -174.105 73.7556 -172.647
lowerback 4.40206 5.69024 3.88562
upperback 2.54821 7.78543 0.818457
thorax 0.573918 3.95996 -1.57965
lowerneck -9.12809 -4.14852 -1.81268
upperneck 24.2887 -6.80996 9.37764
head 9.55607 -1.96553 2.87371
rclavicle 6.09772e-014 -1.66979e-014
rhumerus 61.8498 11.9687 -64.6321
rradius 34.5223
rwrist 34.659
rhand -34.825 -12.9595
rfingers 7.12502
rthumb -7.97583 -42.789
lclavicle 6.09772e-014 -1.66979e-014
lhumerus 33.152 -11.204 74.4765
lradius 82.6621
lwrist -24.1325
lhand -34.5288 44.4508
lfingers 7.12502
lthumb -7.69003 74.291
rfemur 0.825519 9.79761 12.9686
rtibia 39.4942
rfoot -7.26418 -24.2404
rtoes -14.2541
lfemur -17.878 -11.9798 -16.9396
ltibia 34.0565
lfoot -11.5652 -2.16768
ltoes -8.46037
1175
root -0.740804 18.5373 2.33055 -174.321 73.7496 -172.893
lowerback 4.39329 5.7213 3.91665
upperback 2.52595 7.82621 0.711622
thorax 0.577451 3.98069 -1.70534
lowerneck -9.1339 -4.26847 -1.64868
upperneck 24.5445 -7.00274 9.3561
head 9.65543 -2.02238 2.82285
rclavicle -4.94725e-014 2.5842e-015
rhumerus 63.3287 12.0852 -63.3932
rradius 31.277
rwrist 35.5682
rhand -32.7895 -12.2576
rfingers 7.12502
rthumb -6.01103 -42.1523
lclavicle -4.94725e-014 2.5842e-015
lhumerus 32.3082 -11.8747 75.0076
lradius 83.0347
lwrist -23.928
lhand -34.6638 44.389
lfingers 7.12502
lthumb -7.82025 74.2243
rfemur 0.777801 9.37439 12.7204
rtibia 39.4848
rfoot -7.31388 -24.0752
rtoes -14.1962
lfemur -17.8982 -12.1007 -17.0671
ltibia 34.0804
lfoot -11.5932 -2.105
ltoes -8.33076
1176
root -0.744243 18.5386 2.31491 -174.62 73.6661 -173.212
lowerback 4.38962 5.7108 3.87062
upperback 2.5028 7.80976 0.673201
thorax 0.553836 3.97105 -1.72037
lowerneck -9.15464 -4.34465 -1.60584
upperneck 24.8885 -7.11738 9.34235
head 9.78844 -2.04809 2.80618
rclavicle 3.52843e-015 -2.5842e-015
rhumerus 64.684 12.3898 -61.8752
rradius 28.2956
rwrist 36.0713
rhand -31.2812 -12.0556
rfingers 7.12502
rthumb -4.55467 -41.9866
lclavicle 3.52843e-015 -2.5842e-015
lhumerus 31.2342 -12.5066 75.5879
lradius 83.7226
lwrist -23.6184
lhand -34.931 44.1544
lfingers 7.12502
lthumb -8.07813 73.98
rfemur 0.784042 8.83321 12.457
rtibia 39.3947
rfoot -7.26462 -23.983
rtoes -14.4593
lfemur -17.8848 -12.3335 -17.1891
ltibia 34.0484
lfoot -11.5962 -2.07779
ltoes -7.4923
1177
root -0.743702 18.5442 2.29892 -174.492 73.5818 -173.11
lowerback 4.34509 5.75558 3.95969
upperback 2.4349 7.87008 0.649825
thorax 0.527518 4.00001 -1.79249
lowerneck -9.01346 -4.4602 -1.56063
upperneck 25.1783 -7.28434 9.37753
head 9.87675 -2.09566 2.8022
rclavicle -7.77e-014 2.8625e-014
rhumerus 65.6921 12.5944 -60.5298
rradius 25.6181
rwrist 36.3942
rhand -30.5704 -12.5589
rfingers 7.12502
rthumb -3.86832 -42.5035
lclavicle -7.77e-014 2.8625e-014
lhumerus 30.0269 -13.4307 76.0678
lradius 84.6497
lwrist -23.232
lhand -35.303 43.8692
lfingers 7.12502
lthumb -8.4372 73.6806
rfemur 0.827235 8.30886 12.3306
rtibia 39.2131
rfoot -7.22886 -23.9196
rtoes -14.3604
lfemur -17.8695 -12.4246 -17.1722
ltibia 33.9586
lfoot -11.4809 -2.22085
ltoes -5.84179
1178
root -0.740256 18.5527 2.28402 -174.173 73.5295 -172.822
lowerback 4.30841 5.85592 4.12602
upperback 2.32924 8.00722 0.579485
thorax 0.480426 4.06706 -1.95814
lowerneck -8.8843 -4.64972 -1.41918
upperneck 25.5519 -7.5601 9.35959
head 9.99995 -2.18214 2.75247
rclavicle -1.28415e-013 2.36554e-014
rhumerus 66.3323 12.5994 -59.5899
rradius 23.3052
rwrist 36.6272
rhand -29.4226 -13.0064
rfingers 7.12502
rthumb -2.7598 -42.9683
lclavicle -1.28415e-013 2.36554e-014
lhumerus 28.7767 -14.6904 76.4069
lradius 85.5963
lwrist -22.9151
lhand -36.2404 44.2636
lfingers 7.12502
lthumb -9.34182 74.0366
rfemur 0.898289 7.82103 12.2626
rtibia 38.957
rfoot -7.2193 -23.8588
rtoes -13.677
lfemur -17.828 -12.408 -17.0882
ltibia 33.8185
lfoot -11.2847 -2.37804
ltoes -3.73141
1179
root -0.735872 18.5627 2.27233 -173.981 73.4412 -172.674
lowerback 4.24972 5.92472 4.19374
upperback 2.22294 8.09769 0.527812
thorax 0.426207 4.10923 -2.04877
lowerneck -8.7408 -4.80546 -1.39415
upperneck 25.9241 -7.78228 9.40825
head 10.1241 -2.24769 2.75299
rclavicle 7.04443e-014 -1.33186e-014
rhumerus 66.8103 12.6657 -58.8596
rradius 21.3085
rwrist 36.1635
rhand -27.6222 -13.2325
rfingers 7.12502
rthumb -1.02102 -43.2098
lclavicle 7.04443e-014 -1.33186e-014
lhumerus 27.389 -15.8481 76.9331
lradius 86.3116
lwrist -22.6025
lhand -38.8375 44.6915
lfingers 7.12502
lthumb -11.8469 74.3364
rfemur 1.02803 7.36655 12.1901
rtibia 38.6261
rfoot -7.25869 -23.789
rtoes -13.4002
lfemur -17.7739 -12.4953 -17.0422
ltibia 33.639
lfoot -11.2363 -2.37991
ltoes -3.33762
1180
root -0.732739 18.5735 2.26369 -173.71 73.2876 -172.426
lowerback 4.2021 5.93561 4.23897
upperback 2.14279 8.11145 0.522236
thorax 0.378019 4.11342 -2.079
lowerneck -8.62225 -4.94343 -1.34065
upperneck 26.2795 -7.97405 9.3996
head 10.2419 -2.30427 2.73072
rclavicle 1.49362e-013 -1.19271e-015
rhumerus 66.95 12.5186 -59.5029
rradius 19.6163
rwrist 36.2635
rhand -26.2507 -13.4065
rfingers 7.12502
rthumb 0.303639 -43.3861
lclavicle 1.49362e-013 -1.19271e-015
lhumerus 25.8642 -16.9163 77.5541
lradius 87.4697
lwrist -22.903
lhand -39.8944 44.6888
lfingers 7.12502
lthumb -12.866 74.2722
rfemur 1.21783 6.96054 12.2094
rtibia 38.244
rfoot -7.13448 -23.8264
rtoes -13.6824
lfemur -17.7056 -12.6858 -16.9631
ltibia 33.4284
lfoot -11.2986 -2.33397
ltoes -4.49354
1181
root -0.728133 18.5889 2.25332 -172.735 73.0906 -171.503
lowerback 4.02883 5.94369 4.51537
upperback 2.04916 8.1235 0.531912
thorax 0.41574 4.12016 -2.20309
lowerneck -8.37607 -5.09894 -1.16006
upperneck 26.5774 -8.19453 9.37007
head 10.31 -2.36743 2.67735
rclavicle -2.07345e-013 -3.18055e-015
rhumerus 66.5109 11.8581 -62.2019
rradius 18.3049
rwrist 37.5812
rhand -25.663 -13.6728
rfingers 7.12502
rthumb 0.871227 -43.6508
lclavicle -2.07345e-013 -3.18055e-015
lhumerus 24.2083 -18.0518 78.1247
lradius 88.8475
lwrist -23.137
lhand -40.9671 44.7998
lfingers 7.12502
lthumb -13.8999 74.3152
rfemur 1.35946 6.55983 12.4385
rtibia 37.8104
rfoot -6.88206 -23.9297
rtoes -13.7122
lfemur -17.678 -12.9666 -16.6503
ltibia 33.1855
lfoot -11.3214 -2.18897
ltoes -4.97261
1182
root -0.720986 18.6049 2.24169 -171.902 72.8982 -170.751
lowerback 3.75686 5.95843 4.8154
upperback 1.97249 8.13742 0.444259
thorax 0.543714 4.13081 -2.42475
lowerneck -8.05893 -5.22856 -0.933816
upperneck 26.7975 -8.41686 9.52305
head 10.3434 -2.40886 2.68225
rclavicle -4.28132e-014 -3.77691e-015
rhumerus 65.7204 10.8081 -66.196
rradius 17.452
rwrist 39.2735
rhand -25.5776 -13.8588
rfingers 7.12502
rthumb 0.953716 -43.8364
lclavicle -4.28132e-014 -3.77691e-015
lhumerus 22.5744 -19.1551 78.6275
lradius 90.2544
lwrist -23.0668
lhand -41.9764 44.2924
lfingers 7.12502
lthumb -14.8725 73.7386
rfemur 1.50978 6.30868 12.6286
rtibia 37.3474
rfoot -6.90448 -24.0824
rtoes -12.9415
lfemur -17.6406 -13.0467 -16.3786
ltibia 32.8751
lfoot -11.2208 -2.21241
ltoes -4.91624
1183
root -0.709713 18.6195 2.23119 -171.56 72.6618 -170.361
lowerback 3.57706 5.91111 4.96725
upperback 1.95037 8.06851 0.410708
thorax 0.64151 4.09949 -2.51942
lowerneck -7.686 -5.28633 -0.84015
upperneck 27.0156 -8.50149 9.63535
head 10.3588 -2.40839 2.71267
rclavicle -9.70628e-014 1.23246e-014
rhumerus 64.933 10.2648 -68.701
rradius 17.463
rwrist 39.2824
rhand -25.3328 -14.639
rfingers 7.12502
rthumb 1.19017 -44.6154
lclavicle -9.70628e-014 1.23246e-014
lhumerus 20.7893 -19.8713 79.4104
lradius 91.7388
lwrist -22.0539
lhand -42.9609 41.5368
lfingers 7.12502
lthumb -15.8207 70.9103
rfemur 1.89492 6.17964 12.7723
rtibia 36.8504
rfoot -7.01255 -24.3142
rtoes -12.1192
lfemur -17.4138 -12.8749 -16.2428
ltibia 32.5141
lfoot -11.0356 -2.5979
ltoes -4.95203
1184
root -0.696833 18.6376 2.21993 -171.889 72.4239 -170.662
lowerback 3.50465 5.8563 4.8533
upperback 1.87451 7.98757 0.364535
thorax 0.587819 4.0546 -2.50187
lowerneck -7.32296 -5.34496 -0.691651
upperneck 27.3189 -8.54355 9.51544
head 10.3903 -2.40448 2.65689
rclavicle -1.01349e-013 -4.87022e-015
rhumerus 63.9448 10.097 -70.0893
rradius 18.2309
rwrist 38.4199
rhand -25.0903 -15.4529
rfingers 7.12502
rthumb 1.4244 -45.4279
lclavicle -1.01349e-013 -4.87022e-015
lhumerus 18.6353 -21.1327 80.187
lradius 93.1117
lwrist -23.5862
lhand -43.8823 43.7069
lfingers 7.12502
lthumb -16.7079 73.0079
rfemur 2.30558 5.9545 12.6629
rtibia 36.3477
rfoot -6.67892 -24.5189
rtoes -12.6165
lfemur -17.1183 -13.1186 -16.3251
ltibia 32.1027
lfoot -10.8782 -2.72413
ltoes -4.25288
1185
root -0.683609 18.656 2.21107 -171.886 72.231 -170.651
lowerback 3.46073 5.8379 4.76637
upperback 1.77297 7.958 0.319601
thorax 0.499606 4.03434 -2.50287
lowerneck -7.03799 -5.45223 -0.630041
upperneck 27.6188 -8.68996 9.58734
head 10.4575 -2.43194 2.67202
rclavicle 3.31722e-014 2.5345e-015
rhumerus 62.8559 9.8189 -71.6162
rradius 19.2558
rwrist 38.1503
rhand -25.0568 -15.037
rfingers 7.12502
rthumb 1.45667 -45.0118
lclavicle 3.31722e-014 2.5345e-015
lhumerus 16.3958 -22.2326 81.0054
lradius 94.6725
lwrist -24.1621
lhand -44.5391 44.018
lfingers 7.12502
lthumb -17.3401 73.2645
rfemur 2.63719 5.72873 12.6325
rtibia 35.854
rfoot -5.91778 -24.7028
rtoes -13.9382
lfemur -16.8312 -13.5201 -16.2854
ltibia 31.6602
lfoot -10.7753 -2.68077
ltoes -3.23696
1186
root -0.669352 18.6734 2.20507 -171.44 72.052 -170.205
lowerback 3.3147 5.75676 4.69318
upperback 1.71983 7.84024 0.376915
thorax 0.498639 3.97291 -2.39215
lowerneck -6.81141 -5.5075 -0.726906
upperneck 27.9124 -8.76382 9.72906
head 10.54 -2.43682 2.74644
rclavicle -1.65482e-013 6.21202e-015
rhumerus 61.9676 10.1783 -71.9586
rradius 20.7466
rwrist 37.186
rhand -25.1801 -14.5001
rfingers 7.12502
rthumb 1.33759 -44.4757
lclavicle -1.65482e-013 6.21202e-015
lhumerus 14.1127 -23.022 81.8178
lradius 96.2022
lwrist -24.7234
lhand -44.7933 44.0793
lfingers 7.12502
lthumb -17.5848 73.3041
rfemur 2.93438 5.74201 12.8072
rtibia 35.395
rfoot -5.46131 -24.906
rtoes -14.5733
lfemur -16.5812 -13.5528 -16.0793
ltibia 31.2013
lfoot -10.6157 -2.9457
ltoes -2.06469
1187
root -0.656653 18.691 2.20095 -170.826 71.8973 -169.592
lowerback 3.11672 5.60597 4.60643
upperback 1.65808 7.62753 0.519481
thorax 0.497757 3.8634 -2.18263
lowerneck -6.24449 -5.44617 -0.998491
upperneck 28.0478 -8.62393 9.90092
head 10.4892 -2.37927 2.88965
rclavicle 1.12024e-013 -7.8023e-015
rhumerus 61.1043 11.3752 -70.6669
rradius 23.0435
rwrist 35.0323
rhand -25.5656 -14.6741
rfingers 7.12502
rthumb 0.965344 -44.6517
lclavicle 1.12024e-013 -7.8023e-015
lhumerus 11.659 -23.5089 82.7999
lradius 97.6188
lwrist -25.3047
lhand -45.0868 44.3601
lfingers 7.12502
lthumb -17.8672 73.5593
rfemur 3.19024 5.88859 13.0694
rtibia 34.966
rfoot -5.10132 -25.0474
rtoes -14.8921
lfemur -16.3746 -13.5089 -15.8172
ltibia 30.7763
lfoot -10.4822 -3.16146
ltoes -1.2629
